<svg xmlns="http://www.w3.org/2000/svg" aria-hidden="true" style="position:absolute;width:0;height:0;overflow:hidden">
  <defs>
    <symbol id="icon-minus-circle" viewBox="0 0 32 32">
      <path stroke-width="1.116" d="M16 .558C24.528.558 31.442 7.472 31.442 16S24.528 31.442 16 31.442.558 24.528.558 16 7.472.558 16 .558z"/>
      <path stroke-linecap="round" stroke-linejoin="round" stroke-width="1.339" d="M10.286 16h11.429"/>
    </symbol>
    <symbol id="icon-plus" viewBox="0 0 32 32">
      <path stroke-linecap="round" stroke-linejoin="round" stroke-width="2.667" d="M16 6.667v18.667M6.667 16h18.667"/>
    </symbol>
    <symbol id="icon-plus-circle" viewBox="0 0 32 32">
      <path stroke-width="1.116" d="M16 .558C24.528.558 31.442 7.472 31.442 16S24.528 31.442 16 31.442.558 24.528.558 16 7.472.558 16 .558z"/>
      <path stroke-linecap="round" stroke-linejoin="round" stroke-width="1.339" d="M16 10.286v11.429M10.286 16h11.429"/>
    </symbol>
    <symbol id="icon-left" viewBox="0 0 32 32">
      <path stroke-linecap="round" stroke-linejoin="round" stroke-width="2.667" d="m20 24-8-8 8-8"/>
    </symbol>
    <symbol id="icon-right" viewBox="0 0 32 32">
      <path stroke-linecap="round" stroke-linejoin="round" stroke-width="2.667" d="m12 24 8-8-8-8"/>
    </symbol>
    <symbol id="icon-edit-2" viewBox="0 0 32 32">
      <path stroke-linecap="round" stroke-linejoin="round" stroke-width="3.6" d="M22.666 4a3.766 3.766 0 0 1 4.109-.817 3.781 3.781 0 0 1 2.041 2.04 3.764 3.764 0 0 1 0 2.886 3.756 3.756 0 0 1-.817 1.223l-18 18-7.333 2 2-7.333 18-18z"/>
    </symbol>
    <symbol id="icon-eye" viewBox="0 0 32 32">
      <path stroke-linecap="round" stroke-linejoin="round" stroke-width="2.667" d="M1.333 16S6.666 5.333 16 5.333 30.667 16 30.667 16 25.334 26.667 16 26.667 1.333 16 1.333 16z"/>
      <path stroke-linecap="round" stroke-linejoin="round" stroke-width="2.667" d="M20 16a4 4 0 1 1-8 0 4 4 0 0 1 8 0z"/>
    </symbol>
    <symbol id="icon-eye-off" viewBox="0 0 32 32">
      <path stroke-linecap="round" stroke-linejoin="round" stroke-width="2.667" d="M23.92 23.92a13.338 13.338 0 0 1-7.908 2.747H16C6.667 26.667 1.333 16 1.333 16c1.713-3.152 3.977-5.791 6.689-7.877l.058-.043m5.12-2.427c.833-.203 1.788-.32 2.771-.32h.03-.002C25.332 5.333 30.666 16 30.666 16a24.774 24.774 0 0 1-2.91 4.29l.03-.036m-8.959-1.427a4 4 0 1 1-5.655-5.651l.002-.002M1.333 1.333l29.333 29.333"/>
    </symbol>
    <symbol id="icon-log-out" viewBox="0 0 32 32">
      <path stroke-linecap="round" stroke-linejoin="round" stroke-width="2.667" d="M12 28H6.667A2.667 2.667 0 0 1 4 25.333V6.666a2.667 2.667 0 0 1 2.667-2.667H12M21.333 22.667 28 16l-6.667-6.667M28 16H12"/>
    </symbol>
    <symbol id="icon-settings" viewBox="0 0 32 32">
      <path stroke-linecap="round" stroke-linejoin="round" stroke-width="2.667" d="M20 16a4 4 0 1 1-8 0 4 4 0 0 1 8 0z"/>
      <path stroke-linecap="round" stroke-linejoin="round" stroke-width="2.667" d="M25.867 20a2.17 2.17 0 0 0-.187.888c0 .599.239 1.142.628 1.539l.08.08c.483.483.782 1.15.782 1.887s-.299 1.404-.782 1.887c-.483.483-1.15.782-1.887.782s-1.404-.299-1.887-.782l-.08-.08a2.19 2.19 0 0 0-1.538-.627c-.322 0-.627.069-.902.193l.014-.006a2.203 2.203 0 0 0-1.333 2.013v.227a2.667 2.667 0 1 1-5.334 0v-.12a2.2 2.2 0 0 0-1.425-2.008l-.015-.005a2.17 2.17 0 0 0-.888-.187c-.599 0-1.142.239-1.539.628l-.08.08c-.483.483-1.15.782-1.887.782s-1.404-.299-1.887-.782c-.483-.483-.782-1.15-.782-1.887s.299-1.404.782-1.887l.08-.08a2.19 2.19 0 0 0 .627-1.538c0-.322-.069-.627-.193-.902l.006.014a2.203 2.203 0 0 0-2.013-1.333H4a2.667 2.667 0 1 1 0-5.334h.12a2.2 2.2 0 0 0 2.008-1.425l.005-.015a2.17 2.17 0 0 0 .187-.888c0-.599-.239-1.142-.628-1.539l-.08-.08c-.483-.483-.782-1.15-.782-1.887s.299-1.404.782-1.887c.483-.483 1.15-.782 1.887-.782s1.404.299 1.887.782l.08.08a2.19 2.19 0 0 0 1.538.627c.322 0 .627-.069.902-.193l-.014.006h.107a2.203 2.203 0 0 0 1.333-2.013v-.227a2.667 2.667 0 1 1 5.334 0v.12a2.202 2.202 0 0 0 1.319 2.008l.014.006c.261.118.567.187.888.187.599 0 1.142-.239 1.539-.628l.08-.08c.483-.483 1.15-.782 1.887-.782s1.404.299 1.887.782c.483.483.782 1.15.782 1.887s-.299 1.404-.782 1.887l-.08.08a2.19 2.19 0 0 0-.627 1.538c0 .322.069.627.193.902l-.006-.014v.107a2.203 2.203 0 0 0 2.013 1.333H28a2.667 2.667 0 1 1 0 5.334h-.12a2.202 2.202 0 0 0-2.008 1.319l-.006.014z"/>
    </symbol>
    <symbol id="icon-trash" viewBox="0 0 32 32">
      <path stroke-linecap="round" stroke-linejoin="round" stroke-width="3" d="M12 4h8"/>
      <path stroke-linecap="round" stroke-linejoin="round" stroke-width="3.6" d="M4 8h24m-2.667 0-.935 14.026c-.14 2.104-.21 3.156-.665 3.954a4.007 4.007 0 0 1-1.731 1.62c-.826.4-1.881.4-3.99.4h-4.025c-2.109 0-3.163 0-3.99-.4a4.001 4.001 0 0 1-1.731-1.62c-.455-.798-.525-1.85-.665-3.954L6.666 8"/>
    </symbol>
    <symbol id="icon-upload" viewBox="0 0 34 32">
      <path d="M4.8 18.56c0.795 0 1.44 0.645 1.44 1.44v5.333c0 0.325 0.129 0.637 0.359 0.867s0.542 0.359 0.867 0.359h18.667c0.325 0 0.637-0.129 0.867-0.359s0.359-0.542 0.359-0.867v-5.333c0-0.795 0.645-1.44 1.44-1.44s1.44 0.645 1.44 1.44v5.333c0 1.089-0.433 2.134-1.203 2.904s-1.815 1.203-2.904 1.203h-18.667c-1.089 0-2.134-0.433-2.904-1.203s-1.203-1.815-1.203-2.904v-5.333c0-0.795 0.645-1.44 1.44-1.44z"></path>
      <path d="M15.774 2.99c0.028-0.029 0.058-0.056 0.088-0.083 0.109-0.094 0.23-0.169 0.356-0.225 0.178-0.079 0.375-0.122 0.582-0.122 0.003 0 0.006 0 0.009 0 0.181 0.001 0.354 0.036 0.514 0.098 0.18 0.070 0.35 0.178 0.496 0.324l6.667 6.667c0.562 0.562 0.562 1.474 0 2.036s-1.474 0.562-2.036 0l-4.208-4.208v12.524c0 0.795-0.645 1.44-1.44 1.44s-1.44-0.645-1.44-1.44v-12.524l-4.208 4.208c-0.562 0.562-1.474 0.562-2.036 0s-0.562-1.474 0-2.036l6.658-6.658z"></path>
    </symbol>
   <symbol id="icon-x" viewBox="0 0 32 32">
      <path d="M25.212 9.212c0.669-0.669 0.669-1.755 0-2.424s-1.755-0.669-2.424 0l-6.788 6.788-6.788-6.788c-0.669-0.669-1.755-0.669-2.424 0s-0.669 1.755 0 2.424l6.788 6.788-6.788 6.788c-0.669 0.669-0.669 1.755 0 2.424s1.755 0.669 2.424 0l6.788-6.788 6.788 6.788c0.669 0.669 1.755 0.669 2.424 0s0.669-1.755 0-2.424l-6.788-6.788 6.788-6.788z"></path>
    </symbol>
    <symbol id="icon-cup" viewBox="0 0 28 32">
      <path fill="#9be1a0" style="fill: var(--color1, #9be1a0)" d="M28.361 2.088c-0.118-0.401-0.318-0.771-0.585-1.085s-0.597-0.565-0.965-0.737c-0.366-0.178-0.767-0.267-1.171-0.263h-22.77c-0.404-0.024-0.807 0.061-1.171 0.246-0.377 0.173-0.712 0.431-0.981 0.755-0.267 0.314-0.467 0.683-0.585 1.083-0.123 0.397-0.16 0.817-0.111 1.231l2.595 22.972c0.174 1.572 0.902 3.019 2.041 4.069 1.114 1.049 2.562 1.633 4.067 1.641h11.076c1.509-0.007 2.963-0.591 4.082-1.641 1.124-1.060 1.843-2.505 2.025-4.069l1.408-12.913v-0.197l1.092-9.845c0.061-0.415 0.045-0.838-0.047-1.247zM12.379 27.274h-1.582c-1.025-0.059-2.001-0.475-2.769-1.181-0.766-0.715-1.269-1.684-1.424-2.74l-0.38-2.822c-0.049-0.43 0.067-0.863 0.322-1.206s0.63-0.569 1.043-0.629 0.834 0.050 1.17 0.307c0.336 0.257 0.562 0.64 0.629 1.068l0.38 2.789c0.043 0.305 0.188 0.584 0.411 0.788 0.221 0.21 0.507 0.333 0.807 0.345h1.582c0.42 0 0.822 0.173 1.119 0.481s0.463 0.725 0.463 1.16-0.167 0.853-0.463 1.16c-0.297 0.308-0.699 0.481-1.119 0.481h-0.19zM25.038 12.13c-3.339 0.673-6.187 0.804-9.209-1.641-3.75-3.068-8.291-2.084-12.659-0.476l-0.791-6.957c-0.016-0.070-0.016-0.143 0-0.213 0.022-0.069 0.060-0.131 0.111-0.18 0.037-0.061 0.093-0.107 0.158-0.131 0.062-0.018 0.128-0.018 0.19 0h22.975c0.059 0.034 0.113 0.079 0.158 0.131 0.047 0.049 0.079 0.113 0.095 0.18 0.024 0.075 0.024 0.155 0 0.23l-1.029 9.057z"></path>
    </symbol>
    <symbol id="icon-exclamation-mark" viewBox="0 0 32 32">
      <path fill="#9be1a0" style="fill: var(--color1, #9be1a0)" d="M13.474 18.545c0.121 1.266 0.328 2.206 0.611 2.827 0.287 0.618 0.796 0.927 1.532 0.927 0.137 0 0.261-0.022 0.383-0.047 0.125 0.025 0.247 0.047 0.386 0.047 0.734 0 1.244-0.308 1.53-0.927 0.285-0.62 0.488-1.561 0.611-2.827l0.653-9.771c0.122-1.905 0.184-3.271 0.184-4.101 0-1.129-0.295-2.010-0.886-2.643-0.593-0.632-1.372-0.948-2.337-0.948-0.052 0-0.090 0.012-0.14 0.014-0.048-0.002-0.087-0.014-0.137-0.014-0.967 0-1.745 0.316-2.337 0.948s-0.888 1.515-0.888 2.643c0 0.83 0.060 2.196 0.184 4.101l0.652 9.77zM16.025 25.87c-0.937 0-1.733 0.295-2.394 0.886s-0.992 1.31-0.992 2.153c0 0.951 0.335 1.701 1 2.244 0.668 0.544 1.447 0.816 2.338 0.816 0.906 0 1.697-0.268 2.373-0.806 0.675-0.536 1.012-1.289 1.012-2.254 0-0.843-0.323-1.561-0.969-2.153s-1.436-0.887-2.37-0.887z"></path>
    </symbol>
    <symbol id="icon-pie-chart" viewBox="0 0 32 32">
<path stroke="#323f47" style="stroke: var(--color1, #323f47)" stroke-linejoin="round" stroke-linecap="round" stroke-miterlimit="4" stroke-width="2.6667" d="M22.933 18.667c0.369 0 0.554 0 0.704 0.082 0.123 0.068 0.238 0.195 0.293 0.324 0.067 0.157 0.050 0.324 0.016 0.659-0.174 1.733-0.77 3.404-1.744 4.861-1.172 1.754-2.838 3.121-4.787 3.929s-4.094 1.019-6.163 0.607-3.97-1.427-5.462-2.919c-1.492-1.492-2.508-3.392-2.919-5.462s-0.2-4.214 0.607-6.163c0.807-1.949 2.175-3.615 3.929-4.787 1.457-0.974 3.128-1.57 4.861-1.744 0.334-0.034 0.502-0.050 0.659 0.016 0.13 0.055 0.257 0.17 0.324 0.293 0.082 0.15 0.082 0.334 0.082 0.704v8.533c0 0.373 0 0.56 0.073 0.703 0.064 0.125 0.166 0.227 0.291 0.291 0.143 0.073 0.329 0.073 0.703 0.073h8.533z"></path>
<path fill="none" stroke="#9be1a0" style="stroke: var(--color2, #9be1a0)" stroke-linejoin="round" stroke-linecap="round" stroke-miterlimit="4" stroke-width="2.6667" d="M18.667 3.733c0-0.369 0-0.554 0.082-0.704 0.068-0.123 0.195-0.238 0.324-0.293 0.157-0.067 0.324-0.050 0.659-0.016 2.438 0.245 4.73 1.323 6.478 3.071s2.826 4.040 3.071 6.478c0.033 0.334 0.050 0.502-0.016 0.659-0.055 0.13-0.17 0.257-0.293 0.324-0.15 0.082-0.334 0.082-0.704 0.082h-8.533c-0.373 0-0.56 0-0.703-0.073-0.125-0.064-0.227-0.166-0.291-0.291-0.073-0.143-0.073-0.329-0.073-0.703v-8.533z"></path>
</symbol>  
<symbol id="icon-pie-chart" viewBox="0 0 32 32">
<path fill="none" stroke="#323f47" style="stroke: var(--color1, #323f47)" stroke-linejoin="round" stroke-linecap="round" stroke-miterlimit="4" stroke-width="2.6667" d="M22.933 18.667c0.369 0 0.554 0 0.704 0.082 0.123 0.068 0.238 0.195 0.293 0.324 0.067 0.157 0.050 0.324 0.016 0.659-0.174 1.733-0.77 3.404-1.744 4.861-1.172 1.754-2.838 3.121-4.787 3.929s-4.094 1.019-6.163 0.607-3.97-1.427-5.462-2.919c-1.492-1.492-2.508-3.392-2.919-5.462s-0.2-4.214 0.607-6.163c0.807-1.949 2.175-3.615 3.929-4.787 1.457-0.974 3.128-1.57 4.861-1.744 0.334-0.034 0.502-0.050 0.659 0.016 0.13 0.055 0.257 0.17 0.324 0.293 0.082 0.15 0.082 0.334 0.082 0.704v8.533c0 0.373 0 0.56 0.073 0.703 0.064 0.125 0.166 0.227 0.291 0.291 0.143 0.073 0.329 0.073 0.703 0.073h8.533z"></path>
<path fill="none" stroke="#9be1a0" style="stroke: var(--color2, #9be1a0)" stroke-linejoin="round" stroke-linecap="round" stroke-miterlimit="4" stroke-width="2.6667" d="M18.667 3.733c0-0.369 0-0.554 0.082-0.704 0.068-0.123 0.195-0.238 0.324-0.293 0.157-0.067 0.324-0.050 0.659-0.016 2.438 0.245 4.73 1.323 6.478 3.071s2.826 4.040 3.071 6.478c0.033 0.334 0.050 0.502-0.016 0.659-0.055 0.13-0.17 0.257-0.293 0.324-0.15 0.082-0.334 0.082-0.704 0.082h-8.533c-0.373 0-0.56 0-0.703-0.073-0.125-0.064-0.227-0.166-0.291-0.291-0.073-0.143-0.073-0.329-0.073-0.703v-8.533z"></path>
</symbol> 
  </defs>
</svg>
